<svg width="122" height="33" viewBox="0 0 122 33" fill="none" xmlns="http://www.w3.org/2000/svg">
<path d="M10.1749 24L5.05492 17.2746V24H1.34508V8.77017H5.05492V15.4522L10.1315 8.77017H14.4922L8.59119 16.2332L14.7092 24H10.1749ZM27.8837 17.7519C27.8837 18.099 27.862 18.4606 27.8186 18.8366H19.4227C19.4806 19.5887 19.7192 20.1672 20.1386 20.5722C20.5725 20.9627 21.1005 21.158 21.7224 21.158C22.648 21.158 23.2916 20.7675 23.6532 19.9864H27.6017C27.3992 20.7819 27.0304 21.4979 26.4953 22.1342C25.9746 22.7706 25.3165 23.2696 24.521 23.6312C23.7255 23.9928 22.836 24.1736 21.8525 24.1736C20.6666 24.1736 19.6107 23.9205 18.6851 23.4142C17.7594 22.908 17.0363 22.1849 16.5156 21.2447C15.9949 20.3046 15.7346 19.2054 15.7346 17.9471C15.7346 16.6888 15.9877 15.5896 16.4939 14.6495C17.0146 13.7094 17.7377 12.9862 18.6634 12.48C19.589 11.9738 20.6521 11.7207 21.8525 11.7207C23.0241 11.7207 24.0654 11.9666 24.9766 12.4583C25.8878 12.9501 26.5965 13.6515 27.1027 14.5627C27.6234 15.4739 27.8837 16.5369 27.8837 17.7519ZM24.0871 16.7756C24.0871 16.1392 23.8702 15.633 23.4363 15.2569C23.0024 14.8809 22.46 14.6929 21.8092 14.6929C21.1872 14.6929 20.6593 14.8737 20.2254 15.2353C19.806 15.5968 19.5457 16.1103 19.4444 16.7756H24.0871ZM37.2171 11.7641C38.6345 11.7641 39.7627 12.2269 40.6015 13.1525C41.4549 14.0637 41.8815 15.322 41.8815 16.9275V24H38.1934V17.4264C38.1934 16.6165 37.9837 15.9873 37.5642 15.539C37.1448 15.0906 36.5807 14.8664 35.872 14.8664C35.1633 14.8664 34.5993 15.0906 34.1798 15.539C33.7604 15.9873 33.5507 16.6165 33.5507 17.4264V24H29.8409V11.8942H33.5507V13.4997C33.9267 12.9645 34.4329 12.5451 35.0693 12.2414C35.7057 11.9232 36.4216 11.7641 37.2171 11.7641ZM47.9307 20.941H53.1809V24H43.787V21.0495L48.8202 14.9532H43.8303V11.8942H53.0724V14.8447L47.9307 20.941ZM57.088 10.6359C56.4371 10.6359 55.902 10.4479 55.4825 10.0719C55.0776 9.68135 54.8751 9.20407 54.8751 8.64C54.8751 8.06147 55.0776 7.58418 55.4825 7.20813C55.902 6.81762 56.4371 6.62237 57.088 6.62237C57.7244 6.62237 58.245 6.81762 58.65 7.20813C59.0694 7.58418 59.2792 8.06147 59.2792 8.64C59.2792 9.20407 59.0694 9.68135 58.65 10.0719C58.245 10.4479 57.7244 10.6359 57.088 10.6359ZM58.932 11.8942V24H55.2222V11.8942H58.932ZM73.032 17.7519C73.032 18.099 73.0103 18.4606 72.967 18.8366H64.571C64.6289 19.5887 64.8675 20.1672 65.287 20.5722C65.7209 20.9627 66.2488 21.158 66.8707 21.158C67.7963 21.158 68.4399 20.7675 68.8015 19.9864H72.75C72.5475 20.7819 72.1787 21.4979 71.6436 22.1342C71.1229 22.7706 70.4648 23.2696 69.6693 23.6312C68.8738 23.9928 67.9844 24.1736 67.0009 24.1736C65.8149 24.1736 64.759 23.9205 63.8334 23.4142C62.9077 22.908 62.1846 22.1849 61.6639 21.2447C61.1432 20.3046 60.8829 19.2054 60.8829 17.9471C60.8829 16.6888 61.136 15.5896 61.6422 14.6495C62.1629 13.7094 62.8861 12.9862 63.8117 12.48C64.7374 11.9738 65.8004 11.7207 67.0009 11.7207C68.1724 11.7207 69.2137 11.9666 70.1249 12.4583C71.0361 12.9501 71.7448 13.6515 72.251 14.5627C72.7717 15.4739 73.032 16.5369 73.032 17.7519ZM69.2354 16.7756C69.2354 16.1392 69.0185 15.633 68.5846 15.2569C68.1507 14.8809 67.6083 14.6929 66.9575 14.6929C66.3355 14.6929 65.8076 14.8737 65.3737 15.2353C64.9543 15.5968 64.694 16.1103 64.5927 16.7756H69.2354Z" fill="#212529"/>
<path d="M89.4447 11.5776V13.8068H84.7912V16.2149H88.2732V18.379H84.7912V23H82.0088V11.5776H89.4447ZM95.04 23.1302C94.1505 23.1302 93.3478 22.9403 92.6319 22.5607C91.9268 22.181 91.3681 21.6386 90.9559 20.9336C90.5546 20.2285 90.3539 19.4041 90.3539 18.4603C90.3539 17.5275 90.56 16.7085 90.9722 16.0034C91.3844 15.2875 91.9485 14.7397 92.6644 14.36C93.3803 13.9803 94.1831 13.7905 95.0725 13.7905C95.962 13.7905 96.7647 13.9803 97.4807 14.36C98.1966 14.7397 98.7607 15.2875 99.1729 16.0034C99.5851 16.7085 99.7912 17.5275 99.7912 18.4603C99.7912 19.3932 99.5797 20.2176 99.1566 20.9336C98.7444 21.6386 98.1749 22.181 97.4481 22.5607C96.7322 22.9403 95.9295 23.1302 95.04 23.1302ZM95.04 20.722C95.5715 20.722 96.0217 20.5268 96.3905 20.1363C96.7702 19.7458 96.96 19.1871 96.96 18.4603C96.96 17.7336 96.7756 17.1749 96.4068 16.7844C96.0488 16.3939 95.6041 16.1986 95.0725 16.1986C94.5302 16.1986 94.08 16.3939 93.722 16.7844C93.3641 17.1641 93.1851 17.7227 93.1851 18.4603C93.1851 19.1871 93.3586 19.7458 93.7058 20.1363C94.0637 20.5268 94.5085 20.722 95.04 20.722ZM105.4 23.1302C104.511 23.1302 103.708 22.9403 102.992 22.5607C102.287 22.181 101.728 21.6386 101.316 20.9336C100.915 20.2285 100.714 19.4041 100.714 18.4603C100.714 17.5275 100.92 16.7085 101.332 16.0034C101.745 15.2875 102.309 14.7397 103.025 14.36C103.741 13.9803 104.543 13.7905 105.433 13.7905C106.322 13.7905 107.125 13.9803 107.841 14.36C108.557 14.7397 109.121 15.2875 109.533 16.0034C109.945 16.7085 110.151 17.5275 110.151 18.4603C110.151 19.3932 109.94 20.2176 109.517 20.9336C109.105 21.6386 108.535 22.181 107.808 22.5607C107.092 22.9403 106.29 23.1302 105.4 23.1302ZM105.4 20.722C105.932 20.722 106.382 20.5268 106.751 20.1363C107.13 19.7458 107.32 19.1871 107.32 18.4603C107.32 17.7336 107.136 17.1749 106.767 16.7844C106.409 16.3939 105.964 16.1986 105.433 16.1986C104.89 16.1986 104.44 16.3939 104.082 16.7844C103.724 17.1641 103.545 17.7227 103.545 18.4603C103.545 19.1871 103.719 19.7458 104.066 20.1363C104.424 20.5268 104.869 20.722 105.4 20.722ZM111.074 18.4441C111.074 17.5112 111.248 16.6922 111.595 15.9871C111.953 15.282 112.436 14.7397 113.043 14.36C113.651 13.9803 114.328 13.7905 115.077 13.7905C115.674 13.7905 116.216 13.9153 116.704 14.1647C117.203 14.4142 117.594 14.7505 117.876 15.1736V10.9593H120.658V23H117.876V21.6983C117.615 22.1322 117.241 22.4793 116.753 22.7397C116.276 23 115.717 23.1302 115.077 23.1302C114.328 23.1302 113.651 22.9403 113.043 22.5607C112.436 22.1702 111.953 21.6224 111.595 20.9173C111.248 20.2014 111.074 19.3769 111.074 18.4441ZM117.876 18.4603C117.876 17.7661 117.68 17.2183 117.29 16.8169C116.91 16.4156 116.444 16.2149 115.891 16.2149C115.337 16.2149 114.865 16.4156 114.475 16.8169C114.095 17.2075 113.905 17.7498 113.905 18.4441C113.905 19.1383 114.095 19.6915 114.475 20.1037C114.865 20.5051 115.337 20.7058 115.891 20.7058C116.444 20.7058 116.91 20.5051 117.29 20.1037C117.68 19.7024 117.876 19.1546 117.876 18.4603Z" fill="#FF2253"/>
</svg>
